<svg width="500" height="300" viewBox="0 0 500 300" fill="none" xmlns="http://www.w3.org/2000/svg">
<path d="M199.792 107.952V123.12C199.792 130.656 199.216 138.576 194.464 145.392C195.424 146.016 196.672 146.976 197.344 147.744C202.528 140.352 203.344 131.904 203.344 123.072H212.416V147.552H215.968V123.072H224.08V119.664H203.344V110.64C209.92 109.824 217.264 108.624 222.304 107.136L220.096 104.064C215.2 105.648 206.848 107.088 199.792 107.952ZM187.264 103.68V113.376H180.496V116.784H187.264V127.104L179.824 129.12L180.88 132.624L187.264 130.704V143.424C187.264 144.048 186.976 144.24 186.352 144.288C185.728 144.288 183.712 144.336 181.552 144.24C182.032 145.152 182.512 146.64 182.656 147.6C185.872 147.6 187.792 147.504 189.088 146.928C190.336 146.352 190.768 145.392 190.768 143.376V129.648L197.584 127.584L197.104 124.224L190.768 126.096V116.784H197.248V113.376H190.768V103.68H187.264ZM228.592 141.408L229.36 144.864C233.776 143.52 239.536 141.792 245.104 140.16L244.576 137.088C238.672 138.768 232.576 140.448 228.592 141.408ZM259.792 106.56C262.192 107.712 265.216 109.584 266.752 110.928L268.864 108.672C267.328 107.376 264.256 105.6 261.904 104.544L259.792 106.56ZM229.456 123.696C230.128 123.36 231.28 123.072 237.136 122.304C235.024 125.424 233.152 127.824 232.24 128.784C230.752 130.56 229.648 131.76 228.592 131.952C229.024 132.864 229.552 134.544 229.744 135.264C230.752 134.688 232.384 134.208 244.432 131.76C244.336 131.04 244.336 129.696 244.432 128.736L234.88 130.464C238.528 126.144 242.176 120.864 245.248 115.584L242.224 113.76C241.312 115.536 240.256 117.36 239.2 119.088L233.104 119.712C235.984 115.632 238.768 110.448 240.832 105.408L237.472 103.824C235.552 109.584 232.048 115.728 230.992 117.312C229.936 118.944 229.12 120.048 228.256 120.288C228.688 121.248 229.264 122.976 229.456 123.696ZM268.576 127.248C266.656 130.272 264.064 133.056 260.944 135.456C260.176 132.912 259.504 129.84 259.024 126.384L271.264 124.08L270.688 120.912L258.592 123.168C258.352 121.152 258.112 119.04 257.968 116.832L269.92 115.008L269.344 111.84L257.776 113.568C257.632 110.352 257.584 107.04 257.584 103.584H254.032C254.08 107.184 254.176 110.688 254.368 114.096L246.784 115.2L247.36 118.464L254.56 117.36C254.704 119.568 254.944 121.728 255.184 123.792L245.824 125.52L246.4 128.784L255.616 127.056C256.192 131.04 256.96 134.64 257.968 137.616C253.888 140.352 249.184 142.512 244.288 144C245.152 144.816 246.064 146.112 246.544 146.976C251.056 145.392 255.328 143.328 259.168 140.832C261.136 145.152 263.728 147.696 267.136 147.696C270.448 147.696 271.552 146.112 272.224 140.736C271.408 140.4 270.256 139.632 269.536 138.816C269.296 143.088 268.816 144.192 267.52 144.192C265.408 144.192 263.632 142.224 262.144 138.72C265.936 135.84 269.2 132.432 271.6 128.688L268.576 127.248ZM292 130.608C295.84 131.424 300.736 133.104 303.424 134.448L304.912 132C302.224 130.752 297.376 129.168 293.536 128.4L292 130.608ZM287.2 136.704C293.824 137.52 302.128 139.44 306.736 141.072L308.32 138.384C303.664 136.848 295.36 134.976 288.88 134.256L287.2 136.704ZM278.032 105.792V147.84H281.488V145.824H314.416V147.84H318.016V105.792H278.032ZM281.488 142.608V109.056H314.416V142.608H281.488ZM293.872 110.016C291.472 113.952 287.344 117.696 283.216 120.144C283.984 120.624 285.232 121.728 285.76 122.304C287.2 121.344 288.688 120.192 290.176 118.896C291.616 120.432 293.392 121.872 295.312 123.168C291.232 125.088 286.624 126.528 282.352 127.392C282.976 128.064 283.744 129.456 284.08 130.32C288.784 129.216 293.824 127.44 298.384 124.992C302.368 127.152 306.928 128.784 311.488 129.792C311.92 128.928 312.832 127.68 313.504 127.056C309.28 126.288 305.056 124.992 301.312 123.264C304.912 120.912 307.936 118.176 309.952 114.912L307.888 113.712L307.36 113.856H294.928C295.648 112.944 296.32 112.032 296.896 111.072L293.872 110.016ZM292.144 116.976L292.48 116.64H304.912C303.184 118.512 300.88 120.192 298.288 121.68C295.84 120.288 293.728 118.704 292.144 116.976Z" fill="#999999"/>
<path d="M186.421 176H187.583L188.619 172.78H192.455L193.477 176H194.709L191.195 165.752H189.921L186.421 176ZM188.927 171.856L189.459 170.19C189.837 169.028 190.173 167.922 190.509 166.718H190.565C190.915 167.922 191.237 169.028 191.629 170.19L192.161 171.856H188.927ZM194.928 176H196.132L197.21 174.166C197.476 173.704 197.728 173.242 197.994 172.808H198.064C198.358 173.242 198.652 173.704 198.904 174.166L200.066 176H201.312L198.806 172.164L201.116 168.44H199.926L198.946 170.162C198.708 170.582 198.484 170.988 198.246 171.422H198.19C197.924 170.988 197.658 170.582 197.42 170.162L196.37 168.44H195.124L197.434 172.052L194.928 176ZM202.842 176H203.99V170.456C204.774 169.658 205.348 169.238 206.146 169.238C207.196 169.238 207.644 169.882 207.644 171.338V176H208.792V171.198C208.792 169.266 208.064 168.244 206.482 168.244C205.446 168.244 204.662 168.818 203.948 169.532L203.99 167.95V164.856H202.842V176ZM213.462 176.182C214.512 176.182 215.268 175.622 215.982 174.796H216.024L216.122 176H217.06V168.44H215.926V173.858C215.17 174.782 214.596 175.188 213.798 175.188C212.748 175.188 212.3 174.558 212.3 173.102V168.44H211.152V173.242C211.152 175.174 211.88 176.182 213.462 176.182ZM222.934 176.182C224.67 176.182 226.224 174.684 226.224 172.094C226.224 169.77 225.188 168.244 223.214 168.244C222.346 168.244 221.492 168.734 220.778 169.336L220.834 167.95V164.856H219.686V176H220.596L220.708 175.216H220.764C221.422 175.818 222.234 176.182 222.934 176.182ZM222.766 175.216C222.248 175.216 221.52 175.006 220.834 174.39V170.288C221.59 169.588 222.29 169.21 222.948 169.21C224.46 169.21 225.048 170.386 225.048 172.122C225.048 174.026 224.082 175.216 222.766 175.216ZM235.323 176.182C236.653 176.182 237.647 175.65 238.445 174.712L237.801 173.984C237.129 174.74 236.373 175.16 235.379 175.16C233.363 175.16 232.103 173.494 232.103 170.848C232.103 168.216 233.419 166.592 235.421 166.592C236.317 166.592 237.017 166.984 237.549 167.572L238.193 166.816C237.605 166.172 236.653 165.57 235.407 165.57C232.817 165.57 230.913 167.586 230.913 170.876C230.913 174.18 232.775 176.182 235.323 176.182ZM240.276 176H241.424V170.456C242.208 169.658 242.782 169.238 243.58 169.238C244.63 169.238 245.078 169.882 245.078 171.338V176H246.226V171.198C246.226 169.266 245.498 168.244 243.916 168.244C242.88 168.244 242.096 168.818 241.382 169.532L241.424 167.95V164.856H240.276V176ZM250.42 176.182C251.372 176.182 252.24 175.692 252.968 175.076H253.01L253.122 176H254.046V171.31C254.046 169.49 253.318 168.244 251.484 168.244C250.266 168.244 249.202 168.804 248.558 169.224L249.006 170.036C249.58 169.63 250.392 169.196 251.302 169.196C252.604 169.196 252.926 170.204 252.912 171.226C249.664 171.59 248.222 172.402 248.222 174.054C248.222 175.426 249.174 176.182 250.42 176.182ZM250.728 175.258C249.958 175.258 249.328 174.894 249.328 173.984C249.328 172.948 250.238 172.304 252.912 171.996V174.208C252.142 174.894 251.484 175.258 250.728 175.258ZM256.504 176H257.652V171.072C258.17 169.756 258.954 169.28 259.584 169.28C259.892 169.28 260.06 169.322 260.312 169.406L260.536 168.412C260.284 168.286 260.06 168.244 259.738 168.244C258.884 168.244 258.114 168.874 257.596 169.826H257.554L257.442 168.44H256.504V176ZM264.119 176.182C264.539 176.182 265.043 176.042 265.477 175.902L265.239 175.034C264.987 175.146 264.637 175.244 264.357 175.244C263.447 175.244 263.167 174.684 263.167 173.76V169.364H265.253V168.44H263.167V166.298H262.215L262.075 168.44L260.885 168.51V169.364H262.033V173.718C262.033 175.202 262.537 176.182 264.119 176.182ZM268.786 176.182C270.536 176.182 271.488 175.174 271.488 173.97C271.488 172.528 270.27 172.094 269.15 171.66C268.282 171.338 267.498 171.058 267.498 170.302C267.498 169.686 267.96 169.154 268.968 169.154C269.668 169.154 270.2 169.448 270.704 169.826L271.264 169.084C270.69 168.622 269.864 168.244 268.968 168.244C267.33 168.244 266.392 169.182 266.392 170.358C266.392 171.646 267.568 172.136 268.632 172.542C269.472 172.85 270.396 173.214 270.396 174.026C270.396 174.726 269.878 175.286 268.828 175.286C267.876 175.286 267.204 174.908 266.546 174.376L265.986 175.146C266.686 175.734 267.708 176.182 268.786 176.182ZM278.44 176H279.77L283.046 165.752H281.87L280.176 171.408C279.798 172.626 279.546 173.592 279.154 174.81H279.098C278.706 173.592 278.44 172.626 278.076 171.408L276.368 165.752H275.15L278.44 176ZM284.339 176H289.841V175.034H287.755V166.046H286.873C286.355 166.354 285.697 166.592 284.801 166.746V167.488H286.635V175.034H284.339V176ZM292.653 176.182C293.115 176.182 293.507 175.818 293.507 175.286C293.507 174.726 293.115 174.362 292.653 174.362C292.177 174.362 291.785 174.726 291.785 175.286C291.785 175.818 292.177 176.182 292.653 176.182ZM298.176 176.182C299.982 176.182 301.424 175.118 301.424 173.354C301.424 171.968 300.43 171.086 299.226 170.806V170.736C300.318 170.358 301.06 169.574 301.06 168.356C301.06 166.76 299.828 165.864 298.148 165.864C296.972 165.864 296.076 166.396 295.334 167.096L295.95 167.824C296.524 167.222 297.266 166.788 298.106 166.788C299.212 166.788 299.898 167.432 299.898 168.426C299.898 169.504 299.17 170.372 297.014 170.372V171.268C299.394 171.268 300.262 172.08 300.262 173.312C300.262 174.488 299.366 175.23 298.12 175.23C296.902 175.23 296.132 174.656 295.53 174.026L294.942 174.782C295.6 175.496 296.58 176.182 298.176 176.182ZM304.096 176.182C304.558 176.182 304.95 175.818 304.95 175.286C304.95 174.726 304.558 174.362 304.096 174.362C303.62 174.362 303.228 174.726 303.228 175.286C303.228 175.818 303.62 176.182 304.096 176.182ZM309.816 176.182C311.776 176.182 312.952 174.32 312.952 170.988C312.952 167.67 311.776 165.864 309.816 165.864C307.842 165.864 306.68 167.656 306.68 170.988C306.68 174.32 307.842 176.182 309.816 176.182ZM309.816 175.258C308.598 175.258 307.772 173.928 307.772 170.988C307.772 168.034 308.598 166.788 309.816 166.788C311.02 166.788 311.846 168.034 311.846 170.988C311.846 173.928 311.02 175.258 309.816 175.258ZM132.588 190.028V192.87C132.588 194.326 132.266 196.244 128.92 197.35C129.13 197.518 129.368 197.84 129.494 198.022C133.064 196.72 133.484 194.62 133.484 192.87V190.028H132.588ZM133.302 195.712C134.212 196.426 135.346 197.42 135.892 198.064L136.55 197.406C135.976 196.79 134.828 195.81 133.932 195.138L133.302 195.712ZM124.426 188.418C125.322 189.02 126.442 189.832 127.212 190.434H123.712V191.288H126.064V196.944C126.064 197.112 126.008 197.168 125.798 197.182C125.602 197.182 124.958 197.182 124.216 197.168C124.342 197.434 124.482 197.812 124.524 198.064C125.49 198.064 126.092 198.05 126.47 197.91C126.848 197.756 126.96 197.49 126.96 196.958V191.288H128.57C128.304 192.058 128.01 192.856 127.73 193.402L128.458 193.598C128.85 192.842 129.298 191.638 129.676 190.56L129.088 190.392L128.934 190.434H127.926L128.192 190.098C127.87 189.832 127.394 189.482 126.876 189.132C127.716 188.39 128.626 187.312 129.242 186.29L128.654 185.912L128.486 185.954H124.006V186.794H127.87C127.408 187.466 126.806 188.18 126.232 188.684L124.958 187.83L124.426 188.418ZM130.18 188.236V194.872H131.048V189.09H135.08V194.858H135.99V188.236H133.204L133.722 186.752H136.55V185.898H129.662V186.752H132.7C132.588 187.242 132.434 187.788 132.294 188.236H130.18ZM146.126 188.194C146.882 188.88 147.722 189.832 148.086 190.504L148.926 190.084C148.534 189.44 147.708 188.502 146.924 187.83L146.126 188.194ZM138.804 186.038V189.972H139.714V186.038H138.804ZM141.716 185.394V190.42H142.64V185.394H141.716ZM144.572 194.424V196.692C144.572 197.658 144.908 197.896 146.224 197.896C146.504 197.896 148.478 197.896 148.758 197.896C149.836 197.896 150.116 197.518 150.228 195.936C149.976 195.88 149.598 195.74 149.388 195.6C149.346 196.902 149.234 197.084 148.674 197.084C148.254 197.084 146.616 197.084 146.294 197.084C145.622 197.084 145.51 197.028 145.51 196.692V194.424H144.572ZM143.606 192.38V193.472C143.606 194.62 143.256 196.258 138.104 197.378C138.314 197.574 138.58 197.91 138.692 198.134C144.012 196.86 144.586 194.956 144.586 193.486V192.38H143.606ZM139.952 190.868V195.32H140.89V191.722H147.596V195.25H148.562V190.868H139.952ZM145.398 185.254C145.006 186.822 144.348 188.404 143.494 189.44C143.732 189.552 144.124 189.79 144.292 189.93C144.768 189.3 145.202 188.488 145.58 187.578H150.214V186.724H145.902C146.042 186.304 146.182 185.87 146.294 185.436L145.398 185.254ZM154.914 193.542H158.456V192.646H154.914V193.542ZM176.153 191.638C175.915 193.024 175.453 194.102 174.739 194.956C173.955 194.522 173.157 194.102 172.415 193.724C172.737 193.108 173.073 192.394 173.409 191.638H176.153ZM171.169 194.032C172.093 194.48 173.115 195.04 174.095 195.6C173.171 196.398 171.925 196.93 170.329 197.294C170.497 197.49 170.721 197.896 170.805 198.106C172.541 197.644 173.885 197.014 174.907 196.076C176.125 196.818 177.231 197.546 177.945 198.134L178.617 197.406C177.875 196.818 176.755 196.118 175.551 195.404C176.335 194.438 176.853 193.22 177.161 191.638H178.715V190.784H173.759C174.053 190.056 174.319 189.328 174.515 188.656L173.563 188.502C173.367 189.216 173.087 190 172.765 190.784H170.287V191.638H172.401C171.995 192.534 171.561 193.388 171.169 194.032ZM170.665 187.088V189.776H171.561V187.928H177.609V189.748H178.519V187.088H175.201C175.061 186.528 174.809 185.786 174.571 185.198L173.647 185.394C173.843 185.912 174.053 186.556 174.179 187.088H170.665ZM167.823 185.268V188.11H165.905V188.992H167.823V192.576L165.751 193.192L165.975 194.102L167.823 193.514V196.986C167.823 197.182 167.753 197.252 167.571 197.252C167.389 197.252 166.801 197.252 166.157 197.238C166.283 197.49 166.423 197.868 166.437 198.092C167.361 198.106 167.921 198.078 168.257 197.924C168.607 197.784 168.747 197.518 168.747 196.972V193.22L170.581 192.618L170.441 191.778L168.747 192.296V188.992H170.287V188.11H168.747V185.268H167.823ZM186.975 185.52C187.465 186.262 187.969 187.242 188.179 187.872L189.075 187.494C188.865 186.878 188.319 185.926 187.829 185.212L186.975 185.52ZM183.377 185.31C182.579 187.466 181.249 189.594 179.835 190.952C180.017 191.176 180.311 191.666 180.395 191.89C180.899 191.372 181.403 190.756 181.879 190.084V198.064H182.817V188.614C183.377 187.648 183.867 186.626 184.273 185.59L183.377 185.31ZM183.671 196.706V197.602H192.757V196.706H188.739V193.024H192.127V192.128H188.739V188.922H192.547V188.026H184.035V188.922H187.801V192.128H184.511V193.024H187.801V196.706H183.671ZM196.49 197H197.652L198.688 193.78H202.524L203.546 197H204.778L201.264 186.752H199.99L196.49 197ZM198.996 192.856L199.528 191.19C199.906 190.028 200.242 188.922 200.578 187.718H200.634C200.984 188.922 201.306 190.028 201.698 191.19L202.23 192.856H198.996ZM207.404 197.182C207.726 197.182 207.908 197.14 208.09 197.084L207.922 196.202C207.768 196.23 207.712 196.23 207.656 196.23C207.46 196.23 207.306 196.076 207.306 195.698V185.856H206.158V195.614C206.158 196.622 206.536 197.182 207.404 197.182ZM212.378 197.182C212.798 197.182 213.302 197.042 213.736 196.902L213.498 196.034C213.246 196.146 212.896 196.244 212.616 196.244C211.706 196.244 211.426 195.684 211.426 194.76V190.364H213.512V189.44H211.426V187.298H210.474L210.334 189.44L209.144 189.51V190.364H210.292V194.718C210.292 196.202 210.796 197.182 212.378 197.182ZM226.711 185.898C227.593 186.318 228.643 186.976 229.161 187.466L229.735 186.794C229.203 186.318 228.139 185.702 227.257 185.324L226.711 185.898ZM217.947 196.132L218.143 197.098C219.753 196.748 222.049 196.244 224.205 195.768L224.135 194.872C221.853 195.362 219.473 195.852 217.947 196.132ZM219.739 190.588H222.735V193.178H219.739V190.588ZM218.857 189.762V193.99H223.659V189.762H218.857ZM218.031 187.536V188.46H224.961C225.129 190.77 225.451 192.884 225.955 194.536C224.989 195.684 223.827 196.636 222.483 197.35C222.693 197.518 223.057 197.896 223.197 198.078C224.373 197.392 225.409 196.552 226.305 195.544C226.949 197.14 227.817 198.106 228.923 198.106C229.945 198.106 230.323 197.392 230.491 195.026C230.225 194.942 229.875 194.718 229.665 194.508C229.581 196.398 229.413 197.126 228.993 197.126C228.237 197.126 227.565 196.216 227.033 194.676C228.083 193.29 228.937 191.638 229.553 189.748L228.615 189.524C228.153 191.036 227.509 192.38 226.697 193.556C226.333 192.156 226.067 190.406 225.927 188.46H230.127V187.536H225.885C225.843 186.808 225.829 186.066 225.829 185.296H224.835C224.849 186.052 224.863 186.808 224.905 187.536H218.031ZM239.334 197.182C241.868 197.182 243.66 195.11 243.66 191.834C243.66 188.572 241.868 186.57 239.334 186.57C236.786 186.57 234.994 188.572 234.994 191.834C234.994 195.11 236.786 197.182 239.334 197.182ZM239.334 196.16C237.43 196.16 236.184 194.466 236.184 191.834C236.184 189.216 237.43 187.592 239.334 187.592C241.224 187.592 242.47 189.216 242.47 191.834C242.47 194.466 241.224 196.16 239.334 196.16ZM245.806 200.234H246.954V197.63L246.926 196.3C247.626 196.86 248.354 197.182 249.054 197.182C250.79 197.182 252.344 195.684 252.344 193.108C252.344 190.77 251.308 189.244 249.334 189.244C248.438 189.244 247.598 189.762 246.898 190.322H246.856L246.744 189.44H245.806V200.234ZM248.886 196.216C248.368 196.216 247.668 196.006 246.954 195.39V191.288C247.724 190.588 248.41 190.21 249.068 190.21C250.58 190.21 251.168 191.386 251.168 193.122C251.168 195.026 250.202 196.216 248.886 196.216ZM256.483 197.182C256.903 197.182 257.407 197.042 257.841 196.902L257.603 196.034C257.351 196.146 257.001 196.244 256.721 196.244C255.811 196.244 255.531 195.684 255.531 194.76V190.364H257.617V189.44H255.531V187.298H254.579L254.439 189.44L253.249 189.51V190.364H254.397V194.718C254.397 196.202 254.901 197.182 256.483 197.182ZM259.355 197H260.503V189.44H259.355V197ZM259.943 187.816C260.391 187.816 260.727 187.508 260.727 187.018C260.727 186.556 260.391 186.248 259.943 186.248C259.467 186.248 259.159 186.556 259.159 187.018C259.159 187.508 259.467 187.816 259.943 187.816ZM266.013 197.182C267.861 197.182 269.485 195.726 269.485 193.234C269.485 190.7 267.861 189.244 266.013 189.244C264.165 189.244 262.541 190.7 262.541 193.234C262.541 195.726 264.165 197.182 266.013 197.182ZM266.013 196.23C264.655 196.23 263.717 195.026 263.717 193.234C263.717 191.428 264.655 190.21 266.013 190.21C267.385 190.21 268.323 191.428 268.323 193.234C268.323 195.026 267.385 196.23 266.013 196.23ZM271.537 197H272.685V191.456C273.469 190.658 274.043 190.238 274.841 190.238C275.891 190.238 276.339 190.882 276.339 192.338V197H277.487V192.198C277.487 190.266 276.759 189.244 275.177 189.244C274.141 189.244 273.357 189.818 272.629 190.546H272.587L272.475 189.44H271.537V197ZM284.838 190.84H288.296V192.45H284.838V190.84ZM289.262 190.84H292.888V192.45H289.262V190.84ZM284.838 188.502H288.296V190.084H284.838V188.502ZM289.262 188.502H292.888V190.084H289.262V188.502ZM291.81 185.324C291.474 186.024 290.886 187.004 290.382 187.69H286.924L287.47 187.41C287.19 186.822 286.532 185.954 285.958 185.324L285.16 185.702C285.692 186.29 286.252 187.13 286.574 187.69H283.914V193.262H288.296V194.662H282.584V195.544H288.296V198.078H289.262V195.544H295.086V194.662H289.262V193.262H293.84V187.69H291.418C291.88 187.088 292.384 186.332 292.818 185.66L291.81 185.324ZM297.928 192.772V197.28H306.748V198.106H307.686V192.772H306.748V196.356H303.332V191.652H308.904V190.714H303.332V188.404H307.924V187.48H303.332V185.268H302.352V187.48H297.816V188.404H302.352V190.714H296.766V191.652H302.352V196.356H298.908V192.772H297.928ZM315.106 193.066C316.226 193.304 317.64 193.794 318.41 194.172L318.802 193.528C318.032 193.164 316.618 192.702 315.512 192.478L315.106 193.066ZM313.692 194.844C315.624 195.082 318.046 195.642 319.376 196.118L319.796 195.404C318.438 194.956 316.016 194.41 314.126 194.186L313.692 194.844ZM311.018 185.898V198.092H311.928V197.49H321.672V198.092H322.624V185.898H311.018ZM311.928 196.65V186.752H321.672V196.65H311.928ZM315.638 187.088C314.924 188.25 313.706 189.356 312.516 190.084C312.712 190.21 313.034 190.49 313.174 190.644C313.622 190.35 314.084 189.986 314.532 189.58C314.98 190.07 315.526 190.518 316.142 190.91C314.91 191.512 313.524 191.946 312.25 192.198C312.418 192.38 312.614 192.744 312.698 192.968C314.084 192.646 315.596 192.114 316.94 191.386C318.116 192.03 319.474 192.52 320.818 192.814C320.93 192.576 321.168 192.268 321.336 192.1C320.076 191.862 318.802 191.47 317.696 190.938C318.746 190.252 319.642 189.44 320.23 188.488L319.698 188.166L319.544 188.208H315.82C316.044 187.928 316.24 187.648 316.422 187.368L315.638 187.088ZM315.064 189.062L315.176 188.95H318.914C318.396 189.538 317.696 190.056 316.898 190.518C316.17 190.084 315.526 189.608 315.064 189.062ZM327.384 198.078C327.692 197.868 328.182 197.714 332.074 196.454C332.018 196.258 331.948 195.88 331.92 195.628L328.448 196.678V193.472C329.302 192.898 330.086 192.254 330.688 191.582H330.73C331.808 194.494 333.81 196.636 336.694 197.602C336.834 197.336 337.114 196.986 337.324 196.79C335.91 196.384 334.706 195.67 333.726 194.718C334.608 194.172 335.658 193.402 336.47 192.702L335.7 192.17C335.084 192.786 334.062 193.57 333.194 194.158C332.55 193.416 332.032 192.534 331.654 191.582H336.862V190.756H331.262V189.426H335.798V188.628H331.262V187.368H336.428V186.556H331.262V185.254H330.31V186.556H325.298V187.368H330.31V188.628H326.012V189.426H330.31V190.756H324.752V191.582H329.498C328.168 192.814 326.11 193.934 324.36 194.494C324.556 194.676 324.836 195.026 324.976 195.264C325.788 194.97 326.642 194.564 327.482 194.074V196.328C327.482 196.888 327.188 197.112 326.964 197.224C327.118 197.434 327.314 197.854 327.384 198.078ZM341.576 193.542H345.118V192.646H341.576V193.542ZM349.436 196.286L349.674 197.154C350.808 196.692 352.278 196.118 353.692 195.544L353.524 194.774C351.998 195.348 350.472 195.936 349.436 196.286ZM349.702 191.064C349.898 190.966 350.22 190.882 351.816 190.672C351.256 191.596 350.724 192.338 350.5 192.632C350.094 193.15 349.786 193.528 349.506 193.57C349.618 193.808 349.758 194.228 349.8 194.424C350.052 194.256 350.472 194.13 353.58 193.402C353.552 193.22 353.51 192.884 353.524 192.632L351.074 193.15C352.096 191.848 353.09 190.224 353.916 188.642L353.132 188.208C352.894 188.754 352.6 189.3 352.306 189.818L350.654 190C351.452 188.768 352.236 187.144 352.838 185.59L351.928 185.268C351.41 186.976 350.458 188.824 350.164 189.3C349.87 189.79 349.646 190.126 349.408 190.182C349.52 190.42 349.66 190.868 349.702 191.064ZM357.57 192.044V194.214H356.324V192.044H357.57ZM358.228 192.044H359.306V194.214H358.228V192.044ZM355.568 191.26V197.98H356.324V194.97H357.57V197.63H358.228V194.97H359.306V197.616H359.964V194.97H361.084V197.14C361.084 197.252 361.042 197.28 360.944 197.294C360.846 197.294 360.566 197.294 360.244 197.28C360.342 197.476 360.44 197.784 360.468 197.994C360.972 197.994 361.294 197.98 361.546 197.854C361.784 197.728 361.84 197.518 361.84 197.154V191.246L361.084 191.26H355.568ZM359.964 192.044H361.084V194.214H359.964V192.044ZM357.36 185.436C357.584 185.856 357.836 186.36 357.99 186.794H354.672V189.832C354.672 191.974 354.546 195.068 353.286 197.322C353.482 197.42 353.86 197.686 354.014 197.854C355.302 195.558 355.526 192.254 355.54 189.986H361.714V186.794H358.984C358.844 186.332 358.536 185.674 358.228 185.184L357.36 185.436ZM355.54 187.592H360.832V189.202H355.54V187.592ZM370.506 186.444H374.398V187.956H370.506V186.444ZM369.638 185.716V188.684H375.308V185.716H369.638ZM363.996 192.31C364.122 192.198 364.528 192.114 365.004 192.114H366.306V194.2C365.214 194.41 364.206 194.578 363.436 194.704L363.646 195.628L366.306 195.082V198.036H367.174V194.914L368.84 194.564L368.784 193.738L367.174 194.046V192.114H368.532V191.246H367.174V189.076H366.306V191.246H364.864C365.27 190.252 365.662 189.076 365.998 187.844H368.616V186.948H366.236C366.362 186.458 366.46 185.954 366.558 185.464L365.634 185.268C365.55 185.828 365.452 186.402 365.326 186.948H363.534V187.844H365.116C364.822 189.006 364.5 189.972 364.36 190.322C364.122 190.938 363.94 191.4 363.716 191.456C363.814 191.694 363.954 192.114 363.996 192.31ZM374.356 190.35V191.624H370.646V190.35H374.356ZM368.448 195.992L368.602 196.846L374.356 196.398V198.092H375.224V196.328L376.26 196.244L376.274 195.446L375.224 195.516V190.35H376.19V189.538H368.798V190.35H369.764V195.908L368.448 195.992ZM374.356 192.352V193.654H370.646V192.352H374.356ZM374.356 194.382V195.586L370.646 195.852V194.382H374.356Z" fill="#999999"/>
</svg>
